# File created by Blade
# Date/Time:  Wed Jan 21 16:27:40 2015
# Frame Rate: 120.000 fps
#------------------------------------------------------
:FULLY-SPECIFIED
:DEGREES
2017
root 19.680935 35.157155 -21.640030 -179.207544 -1.482585 -177.396035
Spine -11.299600 0.812400 2.203338
Head 5.884648 0.438463 -0.170943
LeftShoulder -11.898355 -31.005172 21.752672
LeftArm 0.158660 0.729944 -5.072085
LeftForeArm 7.946422 -0.000000 -2.771253
LeftHand -10.762301 0.000000 -3.712939
LeftHandThumb1 -26.253704 0.000000 33.147579
RightShoulder -10.059217 -5.299074 -13.053020
RightArm 0.852401 39.189493 9.224924
RightForeArm -36.352412 0.000000 4.937295
RightHand -7.395156 -0.000000 8.409201
RightHandThumb1 -24.326973 -0.000000 -32.862282
LeftUpLeg 9.209423 9.477759 9.088975
LeftLeg -5.346580 -0.000000 0.000000
LeftFoot -22.139774 26.263514 -13.174286
LeftToeBase 28.511527 -0.000000 -0.000000
RightUpLeg 7.312521 -9.310959 -2.564897
RightLeg -2.533141 -0.000000 0.000000
RightFoot -21.820452 -23.330334 17.095798
RightToeBase 24.812592 -0.000000 -0.000000
2018
root 19.677799 35.156520 -21.644659 -179.223525 -1.519785 -177.417049
Spine -11.269229 0.790245 2.176242
Head 5.914010 0.410835 -0.169355
LeftShoulder -11.918421 -31.019649 21.776239
LeftArm 0.154455 0.711360 -5.108940
LeftForeArm 7.989821 0.000000 -2.761293
LeftHand -10.748070 -0.000000 -3.745880
LeftHandThumb1 -26.253704 0.000000 33.147579
RightShoulder -10.059186 -5.297244 -13.033936
RightArm 0.848288 39.340555 9.231738
RightForeArm -36.437038 0.000000 5.034833
RightHand -7.242401 -0.000000 8.533157
RightHandThumb1 -24.326973 -0.000000 -32.862282
LeftUpLeg 9.220795 9.456173 9.066677
LeftLeg -5.340564 -0.000000 0.000000
LeftFoot -22.131631 26.251454 -13.164010
LeftToeBase 28.521706 -0.000000 -0.000000
RightUpLeg 7.337469 -9.309706 -2.589031
RightLeg -2.521600 -0.000000 0.000000
RightFoot -21.859227 -23.394237 17.080964
RightToeBase 24.862449 -0.000000 -0.000000
2019
root 19.675366 35.156040 -21.648958 -179.239639 -1.540461 -177.429192
Spine -11.236062 0.799823 2.160365
Head 5.945002 0.391748 -0.169034
LeftShoulder -11.923986 -31.045552 21.766946
LeftArm 0.171273 0.747050 -5.116459
LeftForeArm 7.925309 -0.000000 -2.774987
LeftHand -10.716434 -0.000000 -3.784327
LeftHandThumb1 -26.253704 0.000000 33.147579
RightShoulder -10.073613 -5.283897 -13.029583
RightArm 0.858329 39.352369 9.249316
RightForeArm -36.498545 -0.000000 5.079263
RightHand -7.216010 -0.000000 8.580477
RightHandThumb1 -24.326973 -0.000000 -32.862282
LeftUpLeg 9.244236 9.435913 9.054086
LeftLeg -5.354123 -0.000000 0.000000
LeftFoot -22.136106 26.251109 -13.182233
LeftToeBase 28.575602 -0.000000 -0.000000
RightUpLeg 7.351346 -9.322433 -2.607735
RightLeg -2.495016 -0.000000 0.000000
RightFoot -21.887403 -23.389844 17.100257
RightToeBase 24.909464 -0.000000 -0.000000
2020
root 19.672862 35.156017 -21.652573 -179.252023 -1.570760 -177.446202
Spine -11.211786 0.788805 2.140735
Head 5.974241 0.353659 -0.173435
LeftShoulder -11.930767 -31.038844 21.747195
LeftArm 0.189806 0.744026 -5.116379
LeftForeArm 7.887508 -0.000000 -2.782748
LeftHand -10.718198 0.000000 -3.819028
LeftHandThumb1 -26.253704 0.000000 33.147579
RightShoulder -10.082444 -5.285820 -13.015873
RightArm 0.891033 39.368243 9.260268
RightForeArm -36.434611 -0.000000 5.087266
RightHand -7.323397 -0.000000 8.621945
RightHandThumb1 -24.326973 -0.000000 -32.862282
LeftUpLeg 9.257743 9.415479 9.035666
LeftLeg -5.359810 -0.000000 0.000000
LeftFoot -22.118990 26.245296 -13.182271
LeftToeBase 28.520027 -0.000000 -0.000000
RightUpLeg 7.368204 -9.320192 -2.628180
RightLeg -2.480795 -0.000000 0.000000
RightFoot -21.907186 -23.408232 17.109396
RightToeBase 24.833734 -0.000000 -0.000000
2021
root 19.671913 35.155702 -21.655597 -179.251640 -1.606848 -177.442665
Spine -11.202588 0.772360 2.140394
Head 6.022739 0.303023 -0.176740
LeftShoulder -11.947848 -31.049367 21.760418
LeftArm 0.191584 0.751755 -5.151172
LeftForeArm 7.849828 -0.000000 -2.774223
LeftHand -10.737884 -0.000000 -3.824897
LeftHandThumb1 -26.253704 0.000000 33.147579
RightShoulder -10.098938 -5.306059 -13.018911
RightArm 0.949820 39.371402 9.319590
RightForeArm -36.418551 -0.000000 5.085640
RightHand -7.305900 -0.000000 8.643241
RightHandThumb1 -24.326973 -0.000000 -32.862282
LeftUpLeg 9.253522 9.393327 9.042496
LeftLeg -5.355855 -0.000000 0.000000
LeftFoot -22.117117 26.216809 -13.151852
LeftToeBase 28.532731 -0.000000 -0.000000
RightUpLeg 7.396075 -9.256357 -2.617244
RightLeg -2.513689 -0.000000 0.000000
RightFoot -21.926525 -23.485577 17.161180
RightToeBase 24.797208 -0.000000 -0.000000
2022
root 19.669601 35.155533 -21.658578 -179.254617 -1.630687 -177.449994
Spine -11.177641 0.769742 2.121915
Head 6.023168 0.284131 -0.135257
LeftShoulder -11.990177 -31.060497 21.781457
LeftArm 0.220615 0.759305 -5.184114
LeftForeArm 7.837513 0.000000 -2.771162
LeftHand -10.749558 -0.000000 -3.865180
LeftHandThumb1 -26.253704 0.000000 33.147579
RightShoulder -10.134177 -5.301601 -12.978848
RightArm 1.082612 39.278270 9.336413
RightForeArm -36.287024 0.000000 4.910857
RightHand -7.221371 -0.000000 8.543726
RightHandThumb1 -24.326973 -0.000000 -32.862282
LeftUpLeg 9.258298 9.390908 9.034242
LeftLeg -5.362109 -0.000000 0.000000
LeftFoot -22.109142 26.199692 -13.148060
LeftToeBase 28.532460 -0.000000 -0.000000
RightUpLeg 7.396844 -9.258867 -2.627670
RightLeg -2.491876 -0.000000 0.000000
RightFoot -21.950984 -23.529165 17.152602
RightToeBase 24.909216 -0.000000 -0.000000
2023
root 19.666764 35.155394 -21.661616 -179.252239 -1.671242 -177.459501
Spine -11.176499 0.752087 2.108980
Head 6.082061 0.235539 -0.126357
LeftShoulder -11.993445 -31.071750 21.776691
LeftArm 0.217990 0.764904 -5.203590
LeftForeArm 7.887003 -0.000000 -2.756287
LeftHand -10.747020 -0.000000 -3.963446
LeftHandThumb1 -26.253704 0.000000 33.147579
RightShoulder -10.150915 -5.322418 -12.950862
RightArm 1.147488 39.268134 9.342451
RightForeArm -36.226330 -0.000000 4.843311
RightHand -7.226401 0.000000 8.508940
RightHandThumb1 -24.326973 -0.000000 -32.862282
LeftUpLeg 9.246877 9.393740 9.021443
LeftLeg -5.360139 -0.000000 0.000000
LeftFoot -22.118529 26.171263 -13.164926
LeftToeBase 28.577108 -0.000000 -0.000000
RightUpLeg 7.399371 -9.273544 -2.638965
RightLeg -2.477576 -0.000000 0.000000
RightFoot -21.967699 -23.545064 17.149959
RightToeBase 24.891669 -0.000000 -0.000000
